<svg width="29" height="28" viewBox="0 0 29 28" fill="none" xmlns="http://www.w3.org/2000/svg">
<g clip-path="url(#clip0_1_1039)">
<path d="M5.59154 22.3851C3.57038 20.9973 2.5598 20.3034 2.56 19.3418C2.5602 18.3801 3.57106 17.6866 5.59279 16.2996L6.06224 15.9775C10.0803 13.2209 12.0893 11.8426 14.3842 11.8419C16.6791 11.8412 18.6891 13.2183 22.7089 15.9726L23.2002 16.3092C25.2263 17.6974 26.2394 18.3915 26.2393 19.3542C26.2392 20.317 25.226 21.0109 23.1996 22.3987L16.6655 26.8738C15.5688 27.6249 15.0205 28.0004 14.3945 28C13.7685 27.9997 13.2206 27.6235 12.1249 26.8711L5.59154 22.3851Z" fill="url(#paint0_linear_1_1039)"/>
<path d="M22.3698 16.4675L22.3698 16.4676L22.8611 16.8042C23.8902 17.5093 24.6059 18.0015 25.0727 18.4322C25.5317 18.8558 25.6393 19.1211 25.6393 19.3542C25.6393 19.5873 25.5316 19.8526 25.0725 20.2761C24.6056 20.7067 23.8898 21.1988 22.8606 21.9037L23.1996 22.3987L22.8606 21.9037L16.3265 26.3787C15.7671 26.7618 15.3875 27.0207 15.0714 27.1891C14.7689 27.3503 14.5745 27.4001 14.3948 27.4C14.2152 27.3999 14.0209 27.3498 13.7186 27.1884C13.4027 27.0196 13.0234 26.7602 12.4645 26.3765L12.4645 26.3765L5.93117 21.8905C4.90457 21.1856 4.19068 20.6936 3.72508 20.2631C3.26732 19.8399 3.15995 19.5748 3.16 19.3419C3.16005 19.109 3.26753 18.844 3.72547 18.4209C4.19125 17.9906 4.90533 17.4989 5.93223 16.7943L6.40167 16.4723C8.42174 15.0864 9.89683 14.0754 11.1519 13.4056C12.3934 12.743 13.3702 12.4422 14.3844 12.4419C15.3986 12.4416 16.3756 12.7418 17.6175 13.4036C18.873 14.0728 20.3488 15.0829 22.3698 16.4675Z" stroke="url(#paint1_linear_1_1039)" stroke-opacity="0.61" stroke-width="1.2"/>
<path d="M3.29622 11.7499L12.9298 26.2312C12.954 26.2675 12.9778 26.3033 13.0012 26.3384C13.6467 27.3079 13.9877 27.796 14.5176 27.8942C15.0471 27.9924 15.553 27.6618 16.5276 26.9937C16.5636 26.9691 16.6001 26.9439 16.6374 26.9184L24.6412 21.4273C24.6973 21.3888 24.7522 21.3511 24.8061 21.3141C26.1214 20.4108 26.7845 19.9321 26.9263 19.2285C27.0739 18.496 26.6027 17.7879 25.6604 16.3716L16.6013 2.75642C15.5634 1.19651 15.0444 0.416559 14.2213 0.263688C13.3982 0.110818 12.6131 0.648563 11.0427 1.72404L4.40331 6.27118C2.85766 7.32976 2.08484 7.85906 1.92442 8.6529C1.76401 9.4467 2.27479 10.2145 3.29622 11.7499Z" fill="url(#paint2_linear_1_1039)" fill-opacity="0.67"/>
<path d="M13.4294 25.8989L13.4294 25.8988L3.79577 11.4176C3.27566 10.6358 2.92008 10.099 2.70654 9.66057C2.50063 9.23783 2.46882 8.98805 2.51253 8.77175C2.55661 8.55361 2.68561 8.32973 3.0446 8.00836C3.41513 7.67665 3.95593 7.30481 4.74235 6.76622L11.3818 2.21907C12.1809 1.67176 12.7312 1.2964 13.1823 1.06901C13.6178 0.849478 13.8806 0.810671 14.1117 0.853599C14.3411 0.896194 14.5661 1.02411 14.8816 1.38026C15.21 1.75097 15.5731 2.29429 16.1017 3.08879L16.6013 2.75642L16.1017 3.0888L25.1608 16.7039C25.6414 17.4262 25.9674 17.9184 26.1627 18.3193C26.3504 18.7045 26.3756 18.9242 26.3381 19.1099C26.3018 19.2903 26.1978 19.4804 25.8997 19.7551C25.5898 20.0406 25.1346 20.3606 24.4664 20.8195L24.4662 20.8197L24.3018 20.9325L24.3016 20.9327L16.2979 26.4236L16.2979 26.4236L16.1887 26.4985L16.1884 26.4988C15.6899 26.8405 15.3588 27.0618 15.092 27.1924C14.8411 27.3151 14.718 27.3211 14.627 27.3043C14.5375 27.2877 14.429 27.2401 14.2468 27.0395C14.0514 26.8244 13.8312 26.5023 13.5007 26.0061C13.5007 26.006 13.5007 26.0059 13.5006 26.0058L13.4294 25.8989Z" stroke="url(#paint3_linear_1_1039)" stroke-opacity="0.44" stroke-width="1.2"/>
<path d="M13.0865 16.5155L5.8016 11.6574L4.09986 10.5186C2.72447 9.59822 2.03678 9.13801 2.03394 8.49352C2.03193 8.03558 2.37661 7.66783 3.06698 7.15907L12.8421 0.523225C13.4357 0.174989 13.8931 0.000658203 14.3868 1.85978e-06C14.8902 -0.000667233 15.3562 0.179203 15.9677 0.539371L24.5351 6.3211C25.6865 7.14668 26.2619 7.71858 26.2609 8.4421C26.2595 9.40884 25.2297 10.1021 23.1701 11.4886L21.5753 12.5622L15.7409 16.4763C15.1941 16.8154 14.8073 16.9851 14.3854 16.9856C13.9785 16.9862 13.6039 16.8294 13.0865 16.5155Z" fill="url(#paint4_linear_1_1039)" fill-opacity="0.96"/>
<path d="M14.3846 16.3856H14.3846C14.1501 16.386 13.8956 16.3035 13.4085 16.0091L6.13529 11.1588L6.13449 11.1582L4.43356 10.02L4.10921 10.5047L4.43355 10.02C3.72967 9.54894 3.25831 9.23167 2.95421 8.9572C2.65741 8.68932 2.63425 8.56199 2.63394 8.49088C2.63369 8.43469 2.64753 8.35833 2.7572 8.22283C2.87765 8.07401 3.08169 7.8941 3.41371 7.64889L13.1625 1.03095C13.7103 0.711353 14.0538 0.600445 14.3876 0.600001C14.7285 0.599548 15.0793 0.714088 15.6476 1.04719L24.1924 6.81366C24.7598 7.22088 25.1379 7.53341 25.374 7.80967C25.5985 8.07233 25.6611 8.26277 25.6609 8.44124C25.6605 8.67337 25.5519 8.93907 25.0841 9.36364C24.609 9.7948 23.881 10.2867 22.835 10.9909L21.2411 12.0639L21.2403 12.0645L15.4157 15.9719C14.8928 16.2954 14.6288 16.3853 14.3846 16.3856Z" stroke="url(#paint5_linear_1_1039)" stroke-opacity="0.3" stroke-width="1.2"/>
</g>
<defs>
<linearGradient id="paint0_linear_1_1039" x1="14.9999" y1="28" x2="15.9045" y2="14.7007" gradientUnits="userSpaceOnUse">
<stop stop-color="white" stop-opacity="0.72"/>
<stop offset="0.0885417" stop-color="white" stop-opacity="0.657606"/>
<stop offset="0.665158" stop-color="white" stop-opacity="0.251277"/>
<stop offset="1" stop-color="white" stop-opacity="0.08"/>
</linearGradient>
<linearGradient id="paint1_linear_1_1039" x1="14.9999" y1="12.5" x2="9.8251" y2="30.4457" gradientUnits="userSpaceOnUse">
<stop offset="0.0354594" stop-color="white" stop-opacity="0"/>
<stop offset="0.225317" stop-color="white" stop-opacity="0"/>
<stop offset="0.338923" stop-color="white" stop-opacity="0"/>
<stop offset="0.677083" stop-color="white" stop-opacity="0.22"/>
<stop offset="1" stop-color="white" stop-opacity="0"/>
</linearGradient>
<linearGradient id="paint2_linear_1_1039" x1="7.50012" y1="3.99999" x2="23.5001" y2="26" gradientUnits="userSpaceOnUse">
<stop stop-color="white" stop-opacity="0"/>
<stop offset="0.223958" stop-color="white" stop-opacity="0.31"/>
<stop offset="0.492822" stop-color="white" stop-opacity="0.71"/>
<stop offset="0.791667" stop-color="white" stop-opacity="0.47"/>
<stop offset="1" stop-color="white" stop-opacity="0"/>
</linearGradient>
<linearGradient id="paint3_linear_1_1039" x1="5.1128" y1="12.5" x2="16.0454" y2="5.74442" gradientUnits="userSpaceOnUse">
<stop stop-color="white" stop-opacity="0.24"/>
<stop offset="1" stop-color="white" stop-opacity="0"/>
</linearGradient>
<linearGradient id="paint4_linear_1_1039" x1="15.5" y1="17" x2="8.5" y2="3.5" gradientUnits="userSpaceOnUse">
<stop stop-color="white" stop-opacity="0.71"/>
<stop offset="1" stop-color="white" stop-opacity="0.41"/>
</linearGradient>
<linearGradient id="paint5_linear_1_1039" x1="17.3646" y1="8" x2="14.1158" y2="18.4037" gradientUnits="userSpaceOnUse">
<stop stop-color="white" stop-opacity="0"/>
<stop offset="1" stop-color="white" stop-opacity="0.86"/>
</linearGradient>
<clipPath id="clip0_1_1039">
<rect width="27.444" height="28" fill="white" transform="translate(0.702148)"/>
</clipPath>
</defs>
</svg>
